<svg xmlns="http://www.w3.org/2000/svg" xmlns:xlink="http://www.w3.org/1999/xlink" contentStyleType="text/css" data-diagram-type="SEQUENCE" height="1048px" preserveAspectRatio="none" style="width:2028px;height:1048px;background:#FFFFFF;" version="1.1" viewBox="0 0 2028 1048" width="2028px" zoomAndPan="magnify"><title>Sequence Diagram 2 (part 1 of 2) &#8212; Set a release reminder</title><defs/><g><text fill="#000000" font-family="Arial" font-size="16" font-weight="bold" lengthAdjust="spacing" textLength="452.8438" x="788.9517" y="30.5">Sequence Diagram 2 (part 1 of 2) &#8212; Set a release reminder</text><g><title>ReminderController</title><rect fill="#FFFFFF" height="857.9131" style="stroke:#000000;stroke-width:1;" width="10" x="514.6145" y="151.6084"/></g><g><title>ReminderServiceImpl</title><rect fill="#FFFFFF" height="800.874" style="stroke:#000000;stroke-width:1;" width="10" x="728.054" y="180.1279"/></g><rect fill="#FFFFFF" height="829.3936" style="stroke:#000000;stroke-width:1.5;" width="2011.7471" x="10" y="195.1279"/><rect fill="#FFFFFF" height="753.8955" style="stroke:none;stroke-width:1;" width="2011.7471" x="10" y="270.626"/><rect fill="#FFFFFF" height="636.6074" style="stroke:#000000;stroke-width:1.5;" width="1991.7471" x="20" y="380.9141"/><rect fill="#FFFFFF" height="74.7686" style="stroke:none;stroke-width:1;" width="1991.7471" x="20" y="456.4121"/><rect fill="#FFFFFF" height="486.3408" style="stroke:none;stroke-width:1;" width="1991.7471" x="20" y="531.1807"/><rect fill="#FFFFFF" height="163.2666" style="stroke:#000000;stroke-width:1.5;" width="1363.1216" x="638.6255" y="612.9492"/><rect fill="#FFFFFF" height="103.2881" style="stroke:none;stroke-width:1;" width="1363.1216" x="638.6255" y="672.9277"/><rect fill="#FFFFFF" height="134.7471" style="stroke:#000000;stroke-width:1.5;" width="1318.4766" x="638.6255" y="818.7354"/><rect fill="#FFFFFF" height="46.249" style="stroke:none;stroke-width:1;" width="1318.4766" x="638.6255" y="907.2334"/><g><title>Member</title><rect fill="#000000" fill-opacity="0.00000" height="920.4326" width="8" x="54.5715" y="121.0889"/><line style="stroke:#000000;stroke-width:0.5;stroke-dasharray:5,5;" x1="58" x2="58" y1="121.0889" y2="1041.5215"/></g><g><title>ReminderController</title><rect fill="#000000" fill-opacity="0.00000" height="920.4326" width="8" x="515.6145" y="121.0889"/><line style="stroke:#000000;stroke-width:0.5;stroke-dasharray:5,5;" x1="518.9751" x2="518.9751" y1="121.0889" y2="1041.5215"/></g><g><title>ReminderServiceImpl</title><rect fill="#000000" fill-opacity="0.00000" height="920.4326" width="8" x="729.054" y="121.0889"/><line style="stroke:#000000;stroke-width:0.5;stroke-dasharray:5,5;" x1="732.6255" x2="732.6255" y1="121.0889" y2="1041.5215"/></g><g><title>MovieRepository</title><rect fill="#000000" fill-opacity="0.00000" height="920.4326" width="8" x="1079.1184" y="121.0889"/><line style="stroke:#000000;stroke-width:0.5;stroke-dasharray:5,5;" x1="1082.3533" x2="1082.3533" y1="121.0889" y2="1041.5215"/></g><g><title>UserRepository</title><rect fill="#000000" fill-opacity="0.00000" height="920.4326" width="8" x="1226.3672" y="121.0889"/><line style="stroke:#000000;stroke-width:0.5;stroke-dasharray:5,5;" x1="1229.8835" x2="1229.8835" y1="121.0889" y2="1041.5215"/></g><g><title>ReminderRepository</title><rect fill="#000000" fill-opacity="0.00000" height="920.4326" width="8" x="1384.1277" y="121.0889"/><line style="stroke:#000000;stroke-width:0.5;stroke-dasharray:5,5;" x1="1387.8508" x2="1387.8508" y1="121.0889" y2="1041.5215"/></g><g><title>ReminderDispatchServiceImpl</title><rect fill="#000000" fill-opacity="0.00000" height="920.4326" width="8" x="1586.8423" y="121.0889"/><line style="stroke:#000000;stroke-width:0.5;stroke-dasharray:5,5;" x1="1590.4045" x2="1590.4045" y1="121.0889" y2="1041.5215"/></g><g><title>PostgreSQL</title><rect fill="#000000" fill-opacity="0.00000" height="920.4326" width="8" x="1948.1021" y="121.0889"/><line style="stroke:#000000;stroke-width:0.5;stroke-dasharray:5,5;" x1="1951.457" x2="1951.457" y1="121.0889" y2="1041.5215"/></g><g class="participant participant-head" data-participant="U"><text fill="#000000" font-family="Arial" font-size="13" lengthAdjust="spacing" textLength="51.1431" x="30" y="117.9531">Member</text><ellipse cx="58.5715" cy="53.8594" fill="#FFFFFF" rx="8" ry="8" style="stroke:#000000;stroke-width:0.5;"/><path d="M58.5715,61.8594 L58.5715,88.8594 M45.5715,69.8594 L71.5715,69.8594 M58.5715,88.8594 L45.5715,103.8594 M58.5715,88.8594 L71.5715,103.8594" fill="none" style="stroke:#000000;stroke-width:0.5;"/></g><g class="participant participant-head" data-participant="C"><rect fill="#FFFFFF" height="29.7295" style="stroke:#000000;stroke-width:0.5;" width="133.2788" x="452.9751" y="90.3594"/><text fill="#000000" font-family="Arial" font-size="13" lengthAdjust="spacing" textLength="119.2788" x="459.9751" y="109.9531">ReminderController</text></g><g class="participant participant-head" data-participant="S"><rect fill="#FFFFFF" height="29.7295" style="stroke:#000000;stroke-width:0.5;" width="144.8569" x="660.6255" y="90.3594"/><text fill="#000000" font-family="Arial" font-size="13" lengthAdjust="spacing" textLength="130.8569" x="667.6255" y="109.9531">ReminderServiceImpl</text></g><g class="participant participant-head" data-participant="MR"><rect fill="#FFFFFF" height="29.7295" style="stroke:#000000;stroke-width:0.5;" width="117.5303" x="1024.3533" y="90.3594"/><text fill="#000000" font-family="Arial" font-size="13" lengthAdjust="spacing" textLength="103.5303" x="1031.3533" y="109.9531">MovieRepository</text></g><g class="participant participant-head" data-participant="UR"><rect fill="#FFFFFF" height="29.7295" style="stroke:#000000;stroke-width:0.5;" width="108.9673" x="1175.8835" y="90.3594"/><text fill="#000000" font-family="Arial" font-size="13" lengthAdjust="spacing" textLength="94.9673" x="1182.8835" y="109.9531">UserRepository</text></g><g class="participant participant-head" data-participant="RR"><rect fill="#FFFFFF" height="29.7295" style="stroke:#000000;stroke-width:0.5;" width="138.5537" x="1318.8508" y="90.3594"/><text fill="#000000" font-family="Arial" font-size="13" lengthAdjust="spacing" textLength="124.5537" x="1325.8508" y="109.9531">ReminderRepository</text></g><g class="participant participant-head" data-participant="D"><rect fill="#FFFFFF" height="29.7295" style="stroke:#000000;stroke-width:0.5;" width="198.8755" x="1491.4045" y="90.3594"/><text fill="#000000" font-family="Arial" font-size="13" lengthAdjust="spacing" textLength="184.8755" x="1498.4045" y="109.9531">ReminderDispatchServiceImpl</text></g><g class="participant participant-head" data-participant="DB"><text fill="#000000" font-family="Arial" font-size="13" lengthAdjust="spacing" textLength="73.29" x="1912.457" y="117.9531">PostgreSQL</text><path d="M1934.1021,69.3594 C1934.1021,59.3594 1952.1021,59.3594 1952.1021,59.3594 C1952.1021,59.3594 1970.1021,59.3594 1970.1021,69.3594 L1970.1021,95.3594 C1970.1021,105.3594 1952.1021,105.3594 1952.1021,105.3594 C1952.1021,105.3594 1934.1021,105.3594 1934.1021,95.3594 L1934.1021,69.3594" fill="#FFFFFF" style="stroke:#000000;stroke-width:0.5;"/><path d="M1934.1021,69.3594 C1934.1021,79.3594 1952.1021,79.3594 1952.1021,79.3594 C1952.1021,79.3594 1970.1021,79.3594 1970.1021,69.3594" fill="none" style="stroke:#000000;stroke-width:0.5;"/></g><g><title>ReminderController</title><rect fill="#FFFFFF" height="857.9131" style="stroke:#000000;stroke-width:1;" width="10" x="514.6145" y="151.6084"/></g><g><title>ReminderServiceImpl</title><rect fill="#FFFFFF" height="800.874" style="stroke:#000000;stroke-width:1;" width="10" x="728.054" y="180.1279"/></g><g class="message" data-participant-1="U" data-participant-2="C"><polygon fill="#000000" points="502.6145,147.6084,512.6145,151.6084,502.6145,155.6084,506.6145,151.6084" style="stroke:#000000;stroke-width:1;"/><line style="stroke:#000000;stroke-width:1;" x1="58.5715" x2="508.6145" y1="151.6084" y2="151.6084"/><text fill="#000000" font-family="Arial" font-size="12" font-weight="bold" lengthAdjust="spacing" textLength="5.1738" x="65.5715" y="146.7139">1</text><text fill="#000000" font-family="Arial" font-size="12" lengthAdjust="spacing" textLength="427.8691" x="74.7454" y="146.7139">PUT /api/v1/users/me/reminders/{movieId} {offsetDays: 3, channel: EMAIL}</text></g><g class="message" data-participant-1="C" data-participant-2="S"><polygon fill="#000000" points="716.054,176.1279,726.054,180.1279,716.054,184.1279,720.054,180.1279" style="stroke:#000000;stroke-width:1;"/><line style="stroke:#000000;stroke-width:1;" x1="524.6145" x2="722.054" y1="180.1279" y2="180.1279"/><text fill="#000000" font-family="Arial" font-size="12" font-weight="bold" lengthAdjust="spacing" textLength="7.5586" x="531.6145" y="175.2334">2</text><text fill="#000000" font-family="Arial" font-size="12" lengthAdjust="spacing" textLength="172.8809" x="543.1731" y="175.2334">save(userId, movieId, request)</text></g><path d="M10,195.1279 L70.8311,195.1279 L70.8311,202.8574 L60.8311,212.8574 L10,212.8574 L10,195.1279" fill="#FFFFFF" style="stroke:#000000;stroke-width:1.5;"/><rect fill="none" height="829.3936" style="stroke:#000000;stroke-width:1.5;" width="2011.7471" x="10" y="195.1279"/><text fill="#000000" font-family="Arial" font-size="13" font-weight="bold" lengthAdjust="spacing" textLength="15.8311" x="25" y="208.7217">alt</text><text fill="#000000" font-family="Arial" font-size="13" font-weight="bold" lengthAdjust="spacing" textLength="186.3989" x="85.8311" y="209.7217">[offsetDays not in {0, 1, 3, 7}]</text><g class="message" data-participant-1="S" data-participant-2="C"><polygon fill="#000000" points="535.6145,230.1064,525.6145,234.1064,535.6145,238.1064,531.6145,234.1064" style="stroke:#000000;stroke-width:1;"/><line style="stroke:#000000;stroke-width:1;stroke-dasharray:2,2;" x1="529.6145" x2="727.054" y1="234.1064" y2="234.1064"/><text fill="#000000" font-family="Arial" font-size="12" font-weight="bold" lengthAdjust="spacing" textLength="7.7461" x="541.6145" y="229.2119">3</text><text fill="#000000" font-family="Arial" font-size="12" lengthAdjust="spacing" textLength="131.7422" x="553.3606" y="229.2119">BusinessRuleException</text></g><g class="message" data-participant-1="C" data-participant-2="U"><polygon fill="#000000" points="69.5715,258.626,59.5715,262.626,69.5715,266.626,65.5715,262.626" style="stroke:#000000;stroke-width:1;"/><line style="stroke:#000000;stroke-width:1;stroke-dasharray:2,2;" x1="63.5715" x2="513.6145" y1="262.626" y2="262.626"/><text fill="#000000" font-family="Arial" font-size="12" font-weight="bold" lengthAdjust="spacing" textLength="8.1152" x="75.5715" y="257.7314">4</text><text fill="#000000" font-family="Arial" font-size="12" lengthAdjust="spacing" textLength="110.2441" x="87.6868" y="257.7314">400 ErrorResponse</text></g><line style="stroke:#000000;stroke-width:1;stroke-dasharray:2,2;" x1="10" x2="2021.7471" y1="271.626" y2="271.626"/><text fill="#000000" font-family="Arial" font-size="13" font-weight="bold" lengthAdjust="spacing" textLength="100.5405" x="15" y="284.2197">[allowed offset]</text><g class="message" data-participant-1="S" data-participant-2="MR"><polygon fill="#000000" points="1071.1184,304.875,1081.1184,308.875,1071.1184,312.875,1075.1184,308.875" style="stroke:#000000;stroke-width:1;"/><line style="stroke:#000000;stroke-width:1;" x1="738.054" x2="1077.1184" y1="308.875" y2="308.875"/><text fill="#000000" font-family="Arial" font-size="12" font-weight="bold" lengthAdjust="spacing" textLength="7.6699" x="745.054" y="303.9805">5</text><text fill="#000000" font-family="Arial" font-size="12" lengthAdjust="spacing" textLength="100.6289" x="756.7239" y="303.9805">findById(movieId)</text></g><g class="message" data-participant-1="MR" data-participant-2="DB"><polygon fill="#000000" points="1940.1021,333.3945,1950.1021,337.3945,1940.1021,341.3945,1944.1021,337.3945" style="stroke:#000000;stroke-width:1;"/><line style="stroke:#000000;stroke-width:1;" x1="1083.1184" x2="1946.1021" y1="337.3945" y2="337.3945"/><text fill="#000000" font-family="Arial" font-size="12" font-weight="bold" lengthAdjust="spacing" textLength="7.793" x="1090.1184" y="332.5">6</text><text fill="#000000" font-family="Arial" font-size="12" lengthAdjust="spacing" textLength="89.4844" x="1101.9114" y="332.5">SELECT movies</text></g><g class="message" data-participant-1="MR" data-participant-2="S"><polygon fill="#000000" points="749.054,361.9141,739.054,365.9141,749.054,369.9141,745.054,365.9141" style="stroke:#000000;stroke-width:1;"/><line style="stroke:#000000;stroke-width:1;stroke-dasharray:2,2;" x1="743.054" x2="1082.1184" y1="365.9141" y2="365.9141"/><text fill="#000000" font-family="Arial" font-size="12" font-weight="bold" lengthAdjust="spacing" textLength="6.9785" x="755.054" y="361.0195">7</text><text fill="#000000" font-family="Arial" font-size="12" lengthAdjust="spacing" textLength="97.8457" x="766.0325" y="361.0195">Optional&lt;Movie&gt;</text></g><path d="M20,380.9141 L80.8311,380.9141 L80.8311,388.6436 L70.8311,398.6436 L20,398.6436 L20,380.9141" fill="#FFFFFF" style="stroke:#000000;stroke-width:1.5;"/><rect fill="none" height="636.6074" style="stroke:#000000;stroke-width:1.5;" width="1991.7471" x="20" y="380.9141"/><text fill="#000000" font-family="Arial" font-size="13" font-weight="bold" lengthAdjust="spacing" textLength="15.8311" x="35" y="394.5078">alt</text><text fill="#000000" font-family="Arial" font-size="13" font-weight="bold" lengthAdjust="spacing" textLength="113.2104" x="95.8311" y="395.5078">[movie not found]</text><g class="message" data-participant-1="S" data-participant-2="C"><polygon fill="#000000" points="535.6145,415.8926,525.6145,419.8926,535.6145,423.8926,531.6145,419.8926" style="stroke:#000000;stroke-width:1;"/><line style="stroke:#000000;stroke-width:1;stroke-dasharray:2,2;" x1="529.6145" x2="727.054" y1="419.8926" y2="419.8926"/><text fill="#000000" font-family="Arial" font-size="12" font-weight="bold" lengthAdjust="spacing" textLength="7.8105" x="541.6145" y="414.998">8</text><text fill="#000000" font-family="Arial" font-size="12" lengthAdjust="spacing" textLength="165.7676" x="553.425" y="414.998">ResourceNotFoundException</text></g><g class="message" data-participant-1="C" data-participant-2="U"><polygon fill="#000000" points="69.5715,444.4121,59.5715,448.4121,69.5715,452.4121,65.5715,448.4121" style="stroke:#000000;stroke-width:1;"/><line style="stroke:#000000;stroke-width:1;stroke-dasharray:2,2;" x1="63.5715" x2="513.6145" y1="448.4121" y2="448.4121"/><text fill="#000000" font-family="Arial" font-size="12" font-weight="bold" lengthAdjust="spacing" textLength="7.793" x="75.5715" y="443.5176">9</text><text fill="#000000" font-family="Arial" font-size="12" lengthAdjust="spacing" textLength="110.4258" x="87.3645" y="443.5176">404 ErrorResponse</text></g><line style="stroke:#000000;stroke-width:1;stroke-dasharray:2,2;" x1="20" x2="2011.7471" y1="457.4121" y2="457.4121"/><text fill="#000000" font-family="Arial" font-size="13" font-weight="bold" lengthAdjust="spacing" textLength="284.1782" x="25" y="470.0059">[movie already released (or no release date)]</text><g class="message" data-participant-1="S" data-participant-2="C"><polygon fill="#000000" points="535.6145,490.6611,525.6145,494.6611,535.6145,498.6611,531.6145,494.6611" style="stroke:#000000;stroke-width:1;"/><line style="stroke:#000000;stroke-width:1;stroke-dasharray:2,2;" x1="529.6145" x2="727.054" y1="494.6611" y2="494.6611"/><text fill="#000000" font-family="Arial" font-size="12" font-weight="bold" lengthAdjust="spacing" textLength="13.2656" x="541.6145" y="489.7666">10</text><text fill="#000000" font-family="Arial" font-size="12" lengthAdjust="spacing" textLength="131.7422" x="558.8801" y="489.7666">BusinessRuleException</text></g><g class="message" data-participant-1="C" data-participant-2="U"><polygon fill="#000000" points="69.5715,519.1807,59.5715,523.1807,69.5715,527.1807,65.5715,523.1807" style="stroke:#000000;stroke-width:1;"/><line style="stroke:#000000;stroke-width:1;stroke-dasharray:2,2;" x1="63.5715" x2="513.6145" y1="523.1807" y2="523.1807"/><text fill="#000000" font-family="Arial" font-size="12" font-weight="bold" lengthAdjust="spacing" textLength="10.3477" x="75.5715" y="518.2861">11</text><text fill="#000000" font-family="Arial" font-size="12" lengthAdjust="spacing" textLength="110.2441" x="89.9192" y="518.2861">400 ErrorResponse</text></g><line style="stroke:#000000;stroke-width:1;stroke-dasharray:2,2;" x1="20" x2="2011.7471" y1="532.1807" y2="532.1807"/><text fill="#000000" font-family="Arial" font-size="13" font-weight="bold" lengthAdjust="spacing" textLength="115.3813" x="25" y="544.7744">[upcoming movie]</text><g class="message" data-participant-1="S" data-participant-2="RR"><polygon fill="#000000" points="1376.1277,565.4297,1386.1277,569.4297,1376.1277,573.4297,1380.1277,569.4297" style="stroke:#000000;stroke-width:1;"/><line style="stroke:#000000;stroke-width:1;" x1="738.054" x2="1382.1277" y1="569.4297" y2="569.4297"/><text fill="#000000" font-family="Arial" font-size="12" font-weight="bold" lengthAdjust="spacing" textLength="12.7324" x="745.054" y="564.5352">12</text><text fill="#000000" font-family="Arial" font-size="12" lengthAdjust="spacing" textLength="237.7207" x="761.7864" y="564.5352">findByUserIdAndMovieId(userId, movieId)</text></g><g class="message" data-participant-1="RR" data-participant-2="DB"><polygon fill="#000000" points="1940.1021,593.9492,1950.1021,597.9492,1940.1021,601.9492,1944.1021,597.9492" style="stroke:#000000;stroke-width:1;"/><line style="stroke:#000000;stroke-width:1;" x1="1388.1277" x2="1946.1021" y1="597.9492" y2="597.9492"/><text fill="#000000" font-family="Arial" font-size="12" font-weight="bold" lengthAdjust="spacing" textLength="12.9199" x="1395.1277" y="593.0547">13</text><text fill="#000000" font-family="Arial" font-size="12" lengthAdjust="spacing" textLength="106.0137" x="1412.0476" y="593.0547">SELECT reminders</text></g><path d="M638.6255,612.9492 L699.4565,612.9492 L699.4565,620.6787 L689.4565,630.6787 L638.6255,630.6787 L638.6255,612.9492" fill="#FFFFFF" style="stroke:#000000;stroke-width:1.5;"/><rect fill="none" height="163.2666" style="stroke:#000000;stroke-width:1.5;" width="1363.1216" x="638.6255" y="612.9492"/><text fill="#000000" font-family="Arial" font-size="13" font-weight="bold" lengthAdjust="spacing" textLength="15.8311" x="653.6255" y="626.543">alt</text><text fill="#000000" font-family="Arial" font-size="13" font-weight="bold" lengthAdjust="spacing" textLength="159.5166" x="714.4565" y="627.543">[reminder already exists]</text><g class="message" data-participant-1="S" data-participant-2="S"><line style="stroke:#000000;stroke-width:1;" x1="738.054" x2="780.054" y1="651.9277" y2="651.9277"/><line style="stroke:#000000;stroke-width:1;" x1="780.054" x2="780.054" y1="651.9277" y2="664.9277"/><line style="stroke:#000000;stroke-width:1;" x1="739.054" x2="780.054" y1="664.9277" y2="664.9277"/><polygon fill="#000000" points="749.054,660.9277,739.054,664.9277,749.054,668.9277,745.054,664.9277" style="stroke:#000000;stroke-width:1;"/><text fill="#000000" font-family="Arial" font-size="12" font-weight="bold" lengthAdjust="spacing" textLength="13.2891" x="745.054" y="647.0332">14</text><text fill="#000000" font-family="Arial" font-size="12" lengthAdjust="spacing" textLength="298.7754" x="762.343" y="647.0332">existing.reschedule(3, EMAIL) &#8594; status SCHEDULED</text></g><line style="stroke:#000000;stroke-width:1;stroke-dasharray:2,2;" x1="638.6255" x2="2001.7471" y1="673.9277" y2="673.9277"/><text fill="#000000" font-family="Arial" font-size="13" font-weight="bold" lengthAdjust="spacing" textLength="97.519" x="643.6255" y="686.5215">[new reminder]</text><g class="message" data-participant-1="S" data-participant-2="UR"><polygon fill="#000000" points="1218.3672,707.1768,1228.3672,711.1768,1218.3672,715.1768,1222.3672,711.1768" style="stroke:#000000;stroke-width:1;"/><line style="stroke:#000000;stroke-width:1;" x1="738.054" x2="1224.3672" y1="711.1768" y2="711.1768"/><text fill="#000000" font-family="Arial" font-size="12" font-weight="bold" lengthAdjust="spacing" textLength="12.8438" x="745.054" y="706.2822">15</text><text fill="#000000" font-family="Arial" font-size="12" lengthAdjust="spacing" textLength="146.3262" x="761.8977" y="706.2822">getReferenceById(userId)</text></g><g class="message" data-participant-1="S" data-participant-2="RR"><polygon fill="#000000" points="1376.1277,735.6963,1386.1277,739.6963,1376.1277,743.6963,1380.1277,739.6963" style="stroke:#000000;stroke-width:1;"/><line style="stroke:#000000;stroke-width:1;" x1="738.054" x2="1382.1277" y1="739.6963" y2="739.6963"/><text fill="#000000" font-family="Arial" font-size="12" font-weight="bold" lengthAdjust="spacing" textLength="12.9668" x="745.054" y="734.8018">16</text><text fill="#000000" font-family="Arial" font-size="12" lengthAdjust="spacing" textLength="249.2344" x="762.0208" y="734.8018">save(new Reminder(user, movie, 3, EMAIL))</text></g><g class="message" data-participant-1="RR" data-participant-2="DB"><polygon fill="#000000" points="1940.1021,764.2158,1950.1021,768.2158,1940.1021,772.2158,1944.1021,768.2158" style="stroke:#000000;stroke-width:1;"/><line style="stroke:#000000;stroke-width:1;" x1="1388.1277" x2="1946.1021" y1="768.2158" y2="768.2158"/><text fill="#000000" font-family="Arial" font-size="12" font-weight="bold" lengthAdjust="spacing" textLength="12.1523" x="1395.1277" y="763.3213">17</text><text fill="#000000" font-family="Arial" font-size="12" lengthAdjust="spacing" textLength="289.166" x="1411.28" y="763.3213">INSERT reminders (SCHEDULED, release &#8722; 3 days)</text></g><g class="message" data-participant-1="S" data-participant-2="D"><polygon fill="#000000" points="1578.8423,799.7354,1588.8423,803.7354,1578.8423,807.7354,1582.8423,803.7354" style="stroke:#000000;stroke-width:1;"/><line style="stroke:#000000;stroke-width:1;" x1="738.054" x2="1584.8423" y1="803.7354" y2="803.7354"/><text fill="#000000" font-family="Arial" font-size="12" font-weight="bold" lengthAdjust="spacing" textLength="12.9844" x="745.054" y="798.8408">18</text><text fill="#000000" font-family="Arial" font-size="12" lengthAdjust="spacing" textLength="138.6035" x="762.0383" y="798.8408">dispatchIfDue(reminder)</text></g><path d="M638.6255,818.7354 L699.4565,818.7354 L699.4565,826.4648 L689.4565,836.4648 L638.6255,836.4648 L638.6255,818.7354" fill="#FFFFFF" style="stroke:#000000;stroke-width:1.5;"/><rect fill="none" height="134.7471" style="stroke:#000000;stroke-width:1.5;" width="1318.4766" x="638.6255" y="818.7354"/><text fill="#000000" font-family="Arial" font-size="13" font-weight="bold" lengthAdjust="spacing" textLength="15.8311" x="653.6255" y="832.3291">alt</text><text fill="#000000" font-family="Arial" font-size="13" font-weight="bold" lengthAdjust="spacing" textLength="204.9785" x="714.4565" y="833.3291">[reminder date already reached]</text><g class="message" data-participant-1="D" data-participant-2="D"><line style="stroke:#000000;stroke-width:1;" x1="1590.8423" x2="1632.8423" y1="857.7139" y2="857.7139"/><line style="stroke:#000000;stroke-width:1;" x1="1632.8423" x2="1632.8423" y1="857.7139" y2="870.7139"/><line style="stroke:#000000;stroke-width:1;" x1="1591.8423" x2="1632.8423" y1="870.7139" y2="870.7139"/><polygon fill="#000000" points="1601.8423,866.7139,1591.8423,870.7139,1601.8423,874.7139,1597.8423,870.7139" style="stroke:#000000;stroke-width:1;"/><text fill="#000000" font-family="Arial" font-size="12" font-weight="bold" lengthAdjust="spacing" textLength="12.9668" x="1597.8423" y="852.8193">19</text><text fill="#000000" font-family="Arial" font-size="12" lengthAdjust="spacing" textLength="330.293" x="1614.8091" y="852.8193">send(reminder, today) (same steps as part 2, steps 28-41)</text></g><g class="message" data-participant-1="D" data-participant-2="S"><polygon fill="#000000" points="749.054,895.2334,739.054,899.2334,749.054,903.2334,745.054,899.2334" style="stroke:#000000;stroke-width:1;"/><line style="stroke:#000000;stroke-width:1;stroke-dasharray:2,2;" x1="743.054" x2="1589.8423" y1="899.2334" y2="899.2334"/><text fill="#000000" font-family="Arial" font-size="12" font-weight="bold" lengthAdjust="spacing" textLength="15.6504" x="755.054" y="894.3389">20</text><text fill="#000000" font-family="Arial" font-size="12" lengthAdjust="spacing" textLength="22.5352" x="774.7043" y="894.3389">true</text></g><line style="stroke:#000000;stroke-width:1;stroke-dasharray:2,2;" x1="638.6255" x2="1957.1021" y1="908.2334" y2="908.2334"/><text fill="#000000" font-family="Arial" font-size="13" font-weight="bold" lengthAdjust="spacing" textLength="118.6567" x="643.6255" y="920.8271">[date in the future]</text><g class="message" data-participant-1="D" data-participant-2="S"><polygon fill="#000000" points="749.054,941.4824,739.054,945.4824,749.054,949.4824,745.054,945.4824" style="stroke:#000000;stroke-width:1;"/><line style="stroke:#000000;stroke-width:1;stroke-dasharray:2,2;" x1="743.054" x2="1589.8423" y1="945.4824" y2="945.4824"/><text fill="#000000" font-family="Arial" font-size="12" font-weight="bold" lengthAdjust="spacing" textLength="12.7324" x="755.054" y="940.5879">21</text><text fill="#000000" font-family="Arial" font-size="12" lengthAdjust="spacing" textLength="27.416" x="771.7864" y="940.5879">false</text></g><g class="message" data-participant-1="S" data-participant-2="C"><polygon fill="#000000" points="535.6145,977.002,525.6145,981.002,535.6145,985.002,531.6145,981.002" style="stroke:#000000;stroke-width:1;"/><line style="stroke:#000000;stroke-width:1;stroke-dasharray:2,2;" x1="529.6145" x2="732.054" y1="981.002" y2="981.002"/><text fill="#000000" font-family="Arial" font-size="12" font-weight="bold" lengthAdjust="spacing" textLength="15.1172" x="541.6145" y="976.1074">22</text><text fill="#000000" font-family="Arial" font-size="12" lengthAdjust="spacing" textLength="110.1035" x="560.7317" y="976.1074">ReminderResponse</text></g><g class="message" data-participant-1="C" data-participant-2="U"><polygon fill="#000000" points="69.5715,1005.5215,59.5715,1009.5215,69.5715,1013.5215,65.5715,1009.5215" style="stroke:#000000;stroke-width:1;"/><line style="stroke:#000000;stroke-width:1;stroke-dasharray:2,2;" x1="63.5715" x2="518.6145" y1="1009.5215" y2="1009.5215"/><text fill="#000000" font-family="Arial" font-size="12" font-weight="bold" lengthAdjust="spacing" textLength="15.3047" x="75.5715" y="1004.627">23</text><text fill="#000000" font-family="Arial" font-size="12" lengthAdjust="spacing" textLength="135.9375" x="94.8762" y="1004.627">200 ReminderResponse</text></g><!--SRC=[XLNHRjem57tdA-xw12gKmYfjGbEbGfY6LBekDC-Jczo0DSVERASjgYhjQTfpjI_ib-pQ925GghrGQX-VUy_nyUKTbx4e4eJlngu5dl0Y4otpWykSQPQ1mPy5oXZdQ0nRueNWIma2Kzl0N3DjUSnp9kqrIn8kbp0ODlR7wg5UFssjE1LBbRAtwg5bkHK8Yx8819mjtOaXjEceXG6e58OTUFdrbq0M66WKo0pItupB17MhnGghP97TqdSMMwNXQ8xkloDW1g9MlcqEZiBor4H9gvKG9Mfo6BL0VSTZd6MvyB35BcokxZY6c2l3gUpQG-RXBYOogFSWKNYusXuiV0CMS9Cp6w_scmjQ2RFirdbpTAsCNMfSVBlSR8rR017qpc42nySmWkle1leiv_sxGR-W3aq_mtxbgEa_PaxPB7c2HvMc1ct0rcO4xxiGhvYKA4OmdL_CBf-8Tk9e5njQm-wmxVXcIHTAZYxT55skiHq2Cs5XomXIMU0I7a-xCEWw-W-E4OYkvtiTmRWmN5BomaBWz276t78bFMRYCH5XpavFOQgr8WDDhgH1saT1DZ0Xr3qcPSMA-PpkY4wbf7MydYNjii-EtwSj0WHZ0YocbzF9pKQ6gJUzs15yzOqmySbduDnlEt4UxNMbgf29Ns_geHPLeMEyKlQp0-ngsbLrzafLgMjJX0cDB5bN3oA1DaLVglg1K1gmywg1jmtzdwLbyIAFLUPUikzYotzEWQrjZNm6BcGotvYx7uggh_2LtNK8IuGpjLgh9UC3DxP2bDNThVXrwkr4eubNc936DgNAPvLcoEzdC9RPWXxovCiqY2wdGSdXbKcytqwL7Ux8ALkY3J55xUQK3yv6KsSNwatmxy3HLM_MOqlrFkYRbhPd6qRChXRJi644jEjkk_NbllnvXlTqnMjJSM0pRKH5J4avAMPfK62x8kmSSjQ5fP4evjohcmigGaD5QfukM4KDTA1jM8RaBER63Hi_juVTSc7uiNSsw3Ifohkoki2c-xu36WPsHJyEXIqq7ZYKCc7ma62VxbxFlx1gcZQIkyssnmmftWTn6qxw_0S0]--></g></svg>